<?xml version="1.0" encoding="UTF-8"?>
<svg width="142px" height="134px" viewBox="0 0 142 134" version="1.1" xmlns="http://www.w3.org/2000/svg" xmlns:xlink="http://www.w3.org/1999/xlink">
    <!-- Generator: Sketch 55 (78076) - https://sketchapp.com -->
    <title>Group 3</title>
    <desc>Created with Sketch.</desc>
    <defs>
        <polygon id="path-1" points="0 -0.000278329985 155.701386 -0.000278329985 155.701386 133.204212 0 133.204212"></polygon>
    </defs>
    <g id="Diversity-Works" stroke="none" stroke-width="1" fill="none" fill-rule="evenodd">
        <g id="Notifications-Screen" transform="translate(-233.000000, -115.000000)">
            <g id="Group-3" transform="translate(233.000000, 115.000000)">
                <mask id="mask-2" fill="white">
                    <use xlink:href="#path-1"></use>
                </mask>
                <g id="Clip-2"></g>
                <path d="M81.8921612,112.989757 C76.624651,112.989757 72.4945898,108.736852 72.4945898,103.210948 C72.4945898,97.6818524 76.624651,93.572519 81.8921612,93.572519 C87.1596714,93.572519 91.4275082,97.6818524 91.4275082,103.210948 C91.4275082,108.736852 87.1596714,112.989757 81.8921612,112.989757 L81.8921612,112.989757 Z M73.4942633,18.3155667 L90.4310388,18.3155667 L90.4310388,25.1176619 C90.4310388,60.4107095 90.0016918,68.3454238 86.8713041,84.2148524 L76.9098143,84.2148524 C73.9204061,68.3454238 73.4942633,60.2703286 73.4942633,24.9740905 L73.4942633,18.3155667 Z M152.4941,47.4031381 C143.974447,23.235281 126.547447,8.30704286 101.965733,2.52270952 C72.7797531,-4.34319524 46.8010592,2.64394762 26.7915694,25.4526619 C9.6945898,44.9464714 6.47448776,67.4776143 16.4359776,91.575281 C17.3138959,93.6873762 17.3747735,95.2411381 16.2020796,97.2766619 C11.1684673,106.024948 6.34952857,114.900852 1.42805918,123.712948 C0.143222449,126.013281 -0.888491837,128.28809 1.16212041,130.677757 C3.05893673,132.888757 5.32422245,132.489948 7.80418163,131.797614 C18.7525286,128.731567 29.7104878,125.687852 40.7229163,122.870662 C42.3698143,122.449519 44.5646102,122.778138 46.1121816,123.543852 C75.5320592,138.076471 103.830508,136.493995 130.273794,116.882138 C144.720998,106.162138 153.186182,91.3934238 155.1631,73.2810905 C155.220773,72.7419 155.518753,72.2314238 155.701386,71.7081857 L155.701386,61.3614714 C154.656855,56.7001857 154.073712,51.8793762 152.4941,47.4031381 L152.4941,47.4031381 Z" id="Fill-1" fill="#FEFEFE" mask="url(#mask-2)"></path>
            </g>
        </g>
    </g>
</svg>