<?xml version="1.0" encoding="utf-8"?>
<!-- Generator: Adobe Illustrator 23.1.1, SVG Export Plug-In . SVG Version: 6.00 Build 0)  -->
<svg version="1.1" id="Layer_1" xmlns="http://www.w3.org/2000/svg" xmlns:xlink="http://www.w3.org/1999/xlink" x="0px" y="0px"
	 viewBox="0 0 512 512" style="enable-background:new 0 0 512 512;" xml:space="preserve">
<g id="XMLID_700_">
	<g id="XMLID_684_">
		<g id="XMLID_685_">
			<path id="XMLID_699_" d="M462,172c2.6,0,5.2-1.1,7.1-2.9c1.9-1.9,2.9-4.4,2.9-7.1s-1.1-5.2-2.9-7.1c-1.9-1.9-4.4-2.9-7.1-2.9
				s-5.2,1.1-7.1,2.9s-2.9,4.4-2.9,7.1s1.1,5.2,2.9,7.1C456.8,170.9,459.4,172,462,172z"/>
			<path id="XMLID_698_" d="M196.5,443.7h-0.1c-5.5,0-10,4.5-10,10s4.5,10,10,10h0.1c5.5,0,10-4.5,10-10S202,443.7,196.5,443.7z"/>
			<path id="XMLID_691_" d="M512,401.6V70c0-16.5-13.5-30-30-30h-34.3v-6c0-18.7-15.3-34-34-34s-34,15.3-34,34v6h-89.9v-6
				c0-18.7-15.3-34-34-34s-34,15.3-34,34v6H132v-6c0-18.7-15.3-34-34-34S64,15.3,64,34v6H30C13.5,40,0,53.5,0,70v412
				c0,16.5,13.5,30,30,30h371.6c2.8,0,5.3-1.1,7.1-2.9c0,0,0,0,0,0l100.4-100.4l0,0C510.9,406.9,512,404.4,512,401.6z M399.7,34
				c0-7.7,6.3-14,14-14s14,6.3,14,14v49c0,7.7-6.3,14-14,14s-14-6.3-14-14V34z M241.9,34c0-7.7,6.3-14,14-14c7.7,0,14,6.3,14,14v49
				c0,7.7-6.3,14-14,14s-14-6.3-14-14L241.9,34L241.9,34z M84,34c0-7.7,6.3-14,14-14s14,6.3,14,14v49c0,7.7-6.3,14-14,14
				s-14-6.3-14-14V34z M20,482v-18.3h136.5c5.5,0,10-4.5,10-10s-4.5-10-10-10H20V172h402c5.5,0,10-4.5,10-10s-4.5-10-10-10H20V70
				c0-5.5,4.5-10,10-10h34v23c0,18.7,15.3,34,34,34s34-15.3,34-34V60h89.9v23c0,18.7,15.3,34,34,34s34-15.3,34-34V60h89.9v23
				c0,18.7,15.3,34,34,34s34-15.3,34-34V60H482c5.5,0,10,4.5,10,10v321.6h-70.4c-16.5,0-30,13.5-30,30V492H30
				C24.5,492,20,487.5,20,482z M411.6,477.9v-56.3c0-5.5,4.5-10,10-10h56.3L411.6,477.9z"/>
		</g>
	</g>
</g>
</svg>
