<?xml version="1.0" encoding="utf-8"?>
<!-- Generator: Adobe Illustrator 23.0.4, SVG Export Plug-In . SVG Version: 6.00 Build 0)  -->
<svg version="1.1" id="Capa_1" xmlns="http://www.w3.org/2000/svg" xmlns:xlink="http://www.w3.org/1999/xlink" x="0px" y="0px"
	 viewBox="0 0 610 512" style="enable-background:new 0 0 610 512;" xml:space="preserve">
<path d="M213.5,42.7L6.1,249.9c-3.4,3.4-3.4,8.8,0,12.2l207.3,207.2c3.4,3.4,8.8,3.4,12.2,0l13.6-13.6c3.4-3.4,3.4-8.8,0-12.2
	L71.6,275.9c-0.6-0.6-0.2-1.6,0.7-1.6h431.1c4.8,0,8.6-3.9,8.6-8.6v-19.3c0-4.8-3.9-8.6-8.6-8.6H72.3c-0.8,0-1.3-1-0.7-1.6
	L239.3,68.4c3.4-3.4,3.4-8.9,0-12.2l-13.6-13.5C222.3,39.3,216.9,39.3,213.5,42.7z"/>
</svg>
