<svg height="467pt" viewBox="-1 0 467 467.42611" width="467pt" xmlns="http://www.w3.org/2000/svg" xmlns:xlink="http://www.w3.org/1999/xlink"><linearGradient id="a" gradientTransform="matrix(1 0 0 -1 -22.952997 492.575106)" gradientUnits="userSpaceOnUse" x1="256" x2="256" y1="456" y2="59.324"><stop offset="0" stop-color="#00efd1"/><stop offset="1" stop-color="#00acea"/></linearGradient><path d="m268.847656 13.546875c-19.175781-17.960937-48.960937-18.074219-68.273437-.265625l-197.160157 182.800781c-3.015624 2.796875-4.011718 7.15625-2.511718 10.984375 1.503906 3.832032 5.199218 6.351563 9.3125 6.351563h41.382812v204.007812c.03125 27.601563 22.398438 49.96875 50 50h260.601563c27.601562-.03125 49.96875-22.398437 50-50v-204.003906h43.679687c4.101563 0 7.785156-2.503906 9.296875-6.3125 1.511719-3.8125.542969-8.160156-2.441406-10.96875zm17.964844 433.882813h-107.527344v-83.226563c.019532-16.5625 13.4375-29.980469 30-30h47.523438c16.558594.019531 29.980468 13.4375 30 30v83.226563zm105.390625-30c-.019531 16.558593-13.4375 29.980468-30 30h-55.394531v-83.226563c-.03125-27.601563-22.398438-49.96875-50-50h-47.523438c-27.601562.03125-49.96875 22.398437-50 50v83.226563h-57.6875c-16.558594-.019532-29.980468-13.441407-30-30v-204.011719h320.601563zm-356.5-224.007813 178.464844-165.472656c11.589843-10.6875 29.460937-10.617188 40.964843.160156l175.546876 165.3125zm0 0" fill="url(#a)"/></svg>