<?xml version="1.0" encoding="iso-8859-1"?>
<!-- Generator: Adobe Illustrator 19.0.0, SVG Export Plug-In . SVG Version: 6.00 Build 0)  -->
<svg version="1.1" id="Capa_1" xmlns="http://www.w3.org/2000/svg" xmlns:xlink="http://www.w3.org/1999/xlink" x="0px" y="0px"
	 viewBox="0 0 480 480" style="enable-background:new 0 0 480 480;" xml:space="preserve">
<g>
	<g>
		<path d="M472,32h-96V8c0-4.418-3.582-8-8-8s-8,3.582-8,8v24H120V8c0-4.418-3.582-8-8-8s-8,3.582-8,8v24H8c-4.418,0-8,3.582-8,8
			v432c0,4.418,3.582,8,8,8h464c4.418,0,8-3.582,8-8V40C480,35.582,476.418,32,472,32z M464,464H16V144h448V464z M464,128H16V48h88
			v32H80c-4.418,0-8,3.582-8,8s3.582,8,8,8h64c4.418,0,8-3.582,8-8s-3.582-8-8-8h-24V48h240v32h-24c-4.418,0-8,3.582-8,8
			s3.582,8,8,8h64c4.418,0,8-3.582,8-8s-3.582-8-8-8h-24V48h88V128z"/>
	</g>
</g>
<g>
	<g>
		<path d="M256,200h-32c-4.418,0-8,3.582-8,8v32c0,4.418,3.582,8,8,8h32c4.418,0,8-3.582,8-8v-32C264,203.582,260.418,200,256,200z
			 M248,232h-16v-16h16V232z"/>
	</g>
</g>
<g>
	<g>
		<path d="M336,200h-32c-4.418,0-8,3.582-8,8v32c0,4.418,3.582,8,8,8h32c4.418,0,8-3.582,8-8v-32C344,203.582,340.418,200,336,200z
			 M328,232h-16v-16h16V232z"/>
	</g>
</g>
<g>
	<g>
		<path d="M416,200h-32c-4.418,0-8,3.582-8,8v32c0,4.418,3.582,8,8,8h32c4.418,0,8-3.582,8-8v-32C424,203.582,420.418,200,416,200z
			 M408,232h-16v-16h16V232z"/>
	</g>
</g>
<g>
	<g>
		<path d="M176,200h-32c-4.418,0-8,3.582-8,8v32c0,4.418,3.582,8,8,8h32c4.418,0,8-3.582,8-8v-32C184,203.582,180.418,200,176,200z
			 M168,232h-16v-16h16V232z"/>
	</g>
</g>
<g>
	<g>
		<path d="M96,200H64c-4.418,0-8,3.582-8,8v32c0,4.418,3.582,8,8,8h32c4.418,0,8-3.582,8-8v-32C104,203.582,100.418,200,96,200z
			 M88,232H72v-16h16V232z"/>
	</g>
</g>
<g>
	<g>
		<path d="M256,280h-32c-4.418,0-8,3.582-8,8v32c0,4.418,3.582,8,8,8h32c4.418,0,8-3.582,8-8v-32C264,283.582,260.418,280,256,280z
			 M248,312h-16v-16h16V312z"/>
	</g>
</g>
<g>
	<g>
		<path d="M336,280h-32c-4.418,0-8,3.582-8,8v32c0,4.418,3.582,8,8,8h32c4.418,0,8-3.582,8-8v-32C344,283.582,340.418,280,336,280z
			 M328,312h-16v-16h16V312z"/>
	</g>
</g>
<g>
	<g>
		<path d="M416,280h-32c-4.418,0-8,3.582-8,8v32c0,4.418,3.582,8,8,8h32c4.418,0,8-3.582,8-8v-32C424,283.582,420.418,280,416,280z
			 M408,312h-16v-16h16V312z"/>
	</g>
</g>
<g>
	<g>
		<path d="M176,280h-32c-4.418,0-8,3.582-8,8v32c0,4.418,3.582,8,8,8h32c4.418,0,8-3.582,8-8v-32C184,283.582,180.418,280,176,280z
			 M168,312h-16v-16h16V312z"/>
	</g>
</g>
<g>
	<g>
		<path d="M96,280H64c-4.418,0-8,3.582-8,8v32c0,4.418,3.582,8,8,8h32c4.418,0,8-3.582,8-8v-32C104,283.582,100.418,280,96,280z
			 M88,312H72v-16h16V312z"/>
	</g>
</g>
<g>
	<g>
		<path d="M256,360h-32c-4.418,0-8,3.582-8,8v32c0,4.418,3.582,8,8,8h32c4.418,0,8-3.582,8-8v-32C264,363.582,260.418,360,256,360z
			 M248,392h-16v-16h16V392z"/>
	</g>
</g>
<g>
	<g>
		<path d="M336,360h-32c-4.418,0-8,3.582-8,8v32c0,4.418,3.582,8,8,8h32c4.418,0,8-3.582,8-8v-32C344,363.582,340.418,360,336,360z
			 M328,392h-16v-16h16V392z"/>
	</g>
</g>
<g>
	<g>
		<path d="M416,360h-32c-4.418,0-8,3.582-8,8v32c0,4.418,3.582,8,8,8h32c4.418,0,8-3.582,8-8v-32C424,363.582,420.418,360,416,360z
			 M408,392h-16v-16h16V392z"/>
	</g>
</g>
<g>
	<g>
		<path d="M176,360h-32c-4.418,0-8,3.582-8,8v32c0,4.418,3.582,8,8,8h32c4.418,0,8-3.582,8-8v-32C184,363.582,180.418,360,176,360z
			 M168,392h-16v-16h16V392z"/>
	</g>
</g>
<g>
	<g>
		<path d="M96,360H64c-4.418,0-8,3.582-8,8v32c0,4.418,3.582,8,8,8h32c4.418,0,8-3.582,8-8v-32C104,363.582,100.418,360,96,360z
			 M88,392H72v-16h16V392z"/>
	</g>
</g>
<g>
</g>
<g>
</g>
<g>
</g>
<g>
</g>
<g>
</g>
<g>
</g>
<g>
</g>
<g>
</g>
<g>
</g>
<g>
</g>
<g>
</g>
<g>
</g>
<g>
</g>
<g>
</g>
<g>
</g>
</svg>
