<?xml version="1.0" encoding="utf-8"?>
<!-- Generator: Adobe Illustrator 23.1.1, SVG Export Plug-In . SVG Version: 6.00 Build 0)  -->
<svg version="1.1" xmlns="http://www.w3.org/2000/svg" xmlns:xlink="http://www.w3.org/1999/xlink" x="0px" y="0px"
	 viewBox="0 0 141.4 143.1" style="enable-background:new 0 0 141.4 143.1;" xml:space="preserve">
<style type="text/css">
	.st0{clip-path:url(#SVGID_2_);}
	.st1{clip-path:url(#SVGID_4_);enable-background:new    ;}
	.st2{clip-path:url(#SVGID_6_);}
	.st3{clip-path:url(#SVGID_8_);fill:none;stroke:#CDCDCC;stroke-width:2;stroke-miterlimit:10;}
	.st4{clip-path:url(#SVGID_10_);}
	.st5{clip-path:url(#SVGID_12_);enable-background:new    ;}
	.st6{clip-path:url(#SVGID_14_);}
	.st7{clip-path:url(#SVGID_16_);}
	.st8{clip-path:url(#SVGID_18_);enable-background:new    ;}
	.st9{clip-path:url(#SVGID_20_);}
	.st10{clip-path:url(#SVGID_22_);fill:#F3F4F4;}
	.st11{clip-path:url(#SVGID_22_);fill:none;stroke:#CDCDCC;stroke-width:2;stroke-miterlimit:10;}
	.st12{clip-path:url(#SVGID_24_);}
	.st13{clip-path:url(#SVGID_26_);fill:#FDD1A5;}
	.st14{clip-path:url(#SVGID_28_);}
	.st15{clip-path:url(#SVGID_30_);fill:#FDD1A5;}
	.st16{clip-path:url(#SVGID_32_);}
	.st17{clip-path:url(#SVGID_34_);fill:#3E3837;}
	.st18{clip-path:url(#SVGID_36_);}
	.st19{clip-path:url(#SVGID_38_);fill:#515051;}
	.st20{clip-path:url(#SVGID_40_);}
	.st21{clip-path:url(#SVGID_42_);fill:#FDD1A5;}
	.st22{clip-path:url(#SVGID_44_);}
	.st23{clip-path:url(#SVGID_46_);fill:#FDD1A5;}
	.st24{clip-path:url(#SVGID_48_);}
	.st25{clip-path:url(#SVGID_50_);fill:#3E3837;}
	.st26{clip-path:url(#SVGID_52_);}
	.st27{opacity:0.725;clip-path:url(#SVGID_54_);fill:#000001;}
	.st28{clip-path:url(#SVGID_56_);fill:none;stroke:#FFFFFF;stroke-miterlimit:10;}
	.st29{clip-path:url(#SVGID_58_);}
	.st30{clip-path:url(#SVGID_60_);}
	.st31{clip-path:url(#SVGID_62_);}
	.st32{clip-path:url(#SVGID_64_);}
	.st33{clip-path:url(#SVGID_66_);fill:#FDD1A5;}
	.st34{clip-path:url(#SVGID_68_);}
	.st35{clip-path:url(#SVGID_70_);fill:#FDD1A5;}
	.st36{clip-path:url(#SVGID_72_);}
	.st37{clip-path:url(#SVGID_74_);fill:#3E3837;}
	.st38{clip-path:url(#SVGID_76_);}
	.st39{clip-path:url(#SVGID_78_);fill:#515051;}
	.st40{clip-path:url(#SVGID_80_);}
	.st41{clip-path:url(#SVGID_82_);fill:#FDD1A5;}
	.st42{clip-path:url(#SVGID_84_);}
	.st43{clip-path:url(#SVGID_86_);fill:#FDD1A5;}
	.st44{clip-path:url(#SVGID_88_);}
	.st45{clip-path:url(#SVGID_90_);fill:#3E3837;}
	.st46{clip-path:url(#SVGID_92_);}
	.st47{fill:#F3F4F4;}
	.st48{fill-rule:evenodd;clip-rule:evenodd;fill:#FDD2A8;}
	.st49{fill-rule:evenodd;clip-rule:evenodd;fill:#3E3837;}
	.st50{fill-rule:evenodd;clip-rule:evenodd;fill:#515051;}
	.st51{fill:#A861A7;}
	.st52{fill:none;stroke:#CFCFCE;stroke-width:1.0964;stroke-miterlimit:10;}
	.st53{clip-path:url(#SVGID_94_);}
	.st54{fill:#CFCFCE;}
</style>
<g id="Layer_2">
</g>
<g id="Layer_1">
	<g>
		<defs>
			<path id="SVGID_93_" d="M106.7,135.9H34.9c-16.1,0-29.1-13-29.1-29.1V35.1c0-16.1,13-29.1,29.1-29.1h71.8
				c16.1,0,29.1,13,29.1,29.1v71.8C135.8,122.9,122.8,135.9,106.7,135.9z"/>
		</defs>
		<clipPath id="SVGID_2_">
			<use xlink:href="#SVGID_93_"  style="overflow:visible;"/>
		</clipPath>
		<g class="st0">
			<g>
				<rect x="4.3" y="5.9" class="st47" width="134.6" height="134.6"/>
			</g>
			<g>
				<g>
					<ellipse transform="matrix(0.9499 -0.3127 0.3127 0.9499 -17.9143 17.6129)" class="st48" cx="46" cy="64.7" rx="3.5" ry="6"/>
				</g>
				<g>
					
						<ellipse transform="matrix(0.3129 -0.9498 0.9498 0.3129 4.0554 134.9365)" class="st48" cx="95.3" cy="64.7" rx="6" ry="3.5"/>
				</g>
				<g>
					<path class="st49" d="M87.9,34.2c5.1,0.8,7.9,4.3,9.1,9c3.1,12.3-3.4,39-26.1,39.3c-11.7,0.2-20.1-2.8-23.2-12.3
						c-3.1-9.5-4.3-24.7,2.3-33.3C58.4,26.2,76,26.1,87.9,34.2z"/>
				</g>
				<g>
					<path class="st50" d="M61.1,96.9c-21.2,9.3-27.6,14.3-30.1,16.5c-3.9,3.4-6.2,16.7-8.4,27.5h48h48c-2.3-10.9-4.3-24.1-8.2-27.5
						c-2.5-2.2-8.7-7.1-29.9-16.4L61.1,96.9z"/>
				</g>
				<g>
					<path class="st48" d="M60.4,78.3v15.8v9.4c5.7,6.7,14.9,6.9,20.6,0v-9.4V78.3C81,65.6,60.4,65.6,60.4,78.3z"/>
				</g>
				<g>
					<path class="st48" d="M70.7,36.1c-34.6,0-22.2,45.1-19.9,48.4c2.5,3.7,14.3,10.1,19.9,10.1s17.4-7.3,19.9-10.9
						C92.8,80.3,105.3,36.1,70.7,36.1z"/>
				</g>
				<g>
					<path class="st49" d="M70.7,35.2c-16.5,0-22.5,10.6-24,21.6c4.9,3.9,13.3-2.2,10.6-8.6c7.2,3.4,11.2-1.9,11.6-6.2
						c0.5,2.5,7.1,5.1,10,2.3c-0.8,4.6-0.2,9.6,5.4,10c1.5,0.1,5.1-2.3,5.4-6.2c-0.2,2.5-0.8,5.4,0.8,7.7c0.9,1.5,3,3,4.5,2.6
						C93.9,46.9,88.1,35.2,70.7,35.2z"/>
				</g>
			</g>
		</g>
	</g>
	<g>
		<path class="st54" d="M105,136.5H36.7c-17.3,0-31.4-14.1-31.4-31.4V36.8c0-17.3,14.1-31.4,31.4-31.4H105
			c17.3,0,31.4,14.1,31.4,31.4v68.4C136.4,122.4,122.3,136.5,105,136.5z M36.7,6.5C20,6.5,6.4,20.1,6.4,36.8v68.4
			c0,16.7,13.6,30.3,30.3,30.3H105c16.7,0,30.3-13.6,30.3-30.3V36.8c0-16.7-13.6-30.3-30.3-30.3H36.7z"/>
	</g>
</g>
</svg>
